<?xml version="1.0" standalone="no"?>
<!DOCTYPE svg PUBLIC "-//W3C//DTD SVG 20010904//EN"
 "http://www.w3.org/TR/2001/REC-SVG-20010904/DTD/svg10.dtd">
<svg version="1.0" xmlns="http://www.w3.org/2000/svg"
 width="260.000000pt" height="260.000000pt" viewBox="0 0 260.000000 260.000000"
 preserveAspectRatio="xMidYMid meet">
<metadata>
Created by potrace 1.11, written by Peter Selinger 2001-2013
</metadata>
<g transform="translate(0.000000,260.000000) scale(0.100000,-0.100000)"
fill="#000000" stroke="none">
<path d="M1068 2584 c-170 -31 -353 -106 -508 -209 -96 -64 -271 -239 -335
-335 -155 -232 -225 -464 -225 -740 0 -362 125 -665 380 -920 196 -196 429
-318 696 -365 113 -20 336 -19 450 0 512 90 915 470 1046 990 29 117 36 378
14 511 -46 266 -173 512 -365 705 -193 192 -434 318 -698 364 -107 19 -350 18
-455 -1z m-25 -753 c72 -28 124 -73 148 -126 25 -54 25 -157 0 -210 -17 -39
-72 -95 -92 -95 -20 0 -7 -18 22 -31 104 -43 158 -159 129 -280 -22 -92 -107
-162 -228 -188 -32 -7 -162 -11 -327 -11 l-275 0 0 486 0 486 283 -4 c265 -4
285 -5 340 -27z m817 -301 l0 -330 150 0 150 0 0 -155 0 -155 -325 0 -325 0 0
485 0 485 175 0 175 0 0 -330z"/>
<path d="M750 1554 l0 -77 53 7 c62 8 90 32 90 77 0 45 -32 69 -94 69 l-49 0
0 -76z"/>
<path d="M750 1200 l0 -80 64 0 c80 0 119 26 119 80 0 54 -39 80 -119 80 l-64
0 0 -80z"/>
</g>
</svg>
